<svg width="264" height="258" viewBox="0 0 264 258" fill="none" xmlns="http://www.w3.org/2000/svg">
<rect x="4.5" y="3.5" width="256" height="242" stroke="black" stroke-width="7"/>
<path d="M70 247.25C62.3333 247.25 55.5833 246.333 49.75 244.5C43.9167 242.833 38.5833 240.417 33.75 237.25C29.0833 234.083 24.5833 230.5 20.25 226.5L33.75 210.75C39.25 215.917 44.8333 219.917 50.5 222.75C56.1667 225.583 62.5 227 69.5 227C77.3333 227 83.9167 225.667 89.25 223C94.75 220.5 98.9167 216.917 101.75 212.25C104.583 207.75 106 202.5 106 196.5L106.25 168.5L108.25 173C105.25 180.167 99.8333 186.25 92 191.25C84.1667 196.083 74.6667 198.5 63.5 198.5C54 198.5 45.25 196.083 37.25 191.25C29.4167 186.417 23.0833 179.917 18.25 171.75C13.5833 163.417 11.25 154.083 11.25 143.75C11.25 132.917 13.75 123.417 18.75 115.25C23.75 106.917 30.3333 100.333 38.5 95.5C46.6667 90.6667 55.5833 88.25 65.25 88.25C74.4167 88.25 82.75 90.1667 90.25 94C97.9167 97.6667 103.5 102.417 107 108.25L105.75 112.5L108.25 92.5H129.5V196.75C129.5 206.083 127.083 214.583 122.25 222.25C117.417 229.917 110.583 236 101.75 240.5C92.9167 245 82.3333 247.25 70 247.25ZM34.5 143.25C34.5 149.917 36.0833 156 39.25 161.5C42.4167 167 46.6667 171.333 52 174.5C57.5 177.667 63.5833 179.25 70.25 179.25C76.4167 179.25 81.9167 178.167 86.75 176C91.75 173.667 95.9167 170.583 99.25 166.75C102.583 162.75 104.917 158.167 106.25 153V132.5C104.75 127.5 102.25 123.167 98.75 119.5C95.25 115.667 91.0833 112.75 86.25 110.75C81.4167 108.583 76.0833 107.5 70.25 107.5C63.5833 107.5 57.5 109 52 112C46.6667 115 42.4167 119.25 39.25 124.75C36.0833 130.083 34.5 136.25 34.5 143.25ZM178.164 196V113.25H160.414V92.5H178.164V48.75C178.164 33.75 181.497 22.25 188.164 14.25C194.997 6.24999 204.997 2.24999 218.164 2.24999C221.664 2.24999 225.497 2.74999 229.664 3.74999C233.997 4.74999 237.747 6.41666 240.914 8.75L231.164 25.5C229.664 24 227.997 23 226.164 22.5C224.331 21.8333 222.497 21.5 220.664 21.5C214.497 21.5 209.747 23.5833 206.414 27.75C203.081 31.9167 201.414 39 201.414 49V92.5H234.164V113.25H201.414V196H178.164Z" fill="black"/>
</svg>
